<?xml version="1.0" encoding="UTF-8"?>
<svg width="48px" height="90px" viewBox="0 0 48 90" version="1.1" xmlns="http://www.w3.org/2000/svg" xmlns:xlink="http://www.w3.org/1999/xlink">
    <!-- Generator: Sketch 54.1 (76490) - https://sketchapp.com -->
    <title>energy savings</title>
    <desc>Created with Sketch.</desc>
    <g id="Page-1" stroke="none" stroke-width="1" fill="none" fill-rule="evenodd">
        <path d="M10.301,25.865 C10.301,27.414 10.625,28.647 11.266,29.697 L8.012,39.316 C4.231,36.879 0.842,32.998 0.842,26.589 C0.76,16.05 9.267,10.068 18.117,9.435 L15.086,18.388 C12.28,19.715 10.301,22.37 10.301,25.865 Z M34.602,20.119 C33.502,18.822 31.908,17.81 29.529,17.505 L30.47,9.436 C37.69,10.157 45.706,14.631 46.368,25.812 L36.987,25.812 C36.793,24.801 36.508,23.613 36.014,22.443 L37.032,17.05 L34.602,20.119 Z M12.941,69.762 C14.205,71.035 15.672,71.797 17.047,72.208 L16.047,80.425 C6.445,78.974 0.481,72.113 0.338,61.884 L9.797,61.884 C9.949,63.997 10.422,65.7 11.094,67.087 L9.283,74.528 L12.941,69.762 Z M38.947,48.66 C43.898,51.502 47.662,55.438 47.66,62.574 C47.66,72.279 41.112,80.687 28.344,80.687 C28.301,80.687 28.268,80.683 28.229,80.683 L31.065,72.199 C35.112,71.033 38.204,67.431 38.204,63.066 C38.204,60.576 37.409,58.809 36.013,57.42 L38.947,48.66 Z M34.113,41.734 L36.506,40.232 L35.734,42.56 L32.355,52.639 L26.098,71.344 L22.867,81.002 L19.852,90 L20.959,80.869 L22.119,71.293 L24.02,55.574 L15.154,67.111 L14.375,68.129 L14.75,66.566 L19.506,46.982 L21.291,39.627 L14.785,45.175 L10.131,49.146 L11.963,43.738 L15.617,32.914 L20.75,17.714 L24.15,7.658 L26.75,0 L25.85,7.674 L24.744,17.221 L22.762,34.235 L32.662,21.687 L29.283,39.627 L28.193,45.458 L34.113,41.734 Z" id="energy-savings" fill="#000000" fill-rule="nonzero"></path>
    </g>
</svg>