<?xml version="1.0" encoding="UTF-8"?>
<svg width="90px" height="90px" viewBox="0 0 90 90" version="1.1" xmlns="http://www.w3.org/2000/svg" xmlns:xlink="http://www.w3.org/1999/xlink">
    <!-- Generator: Sketch 54.1 (76490) - https://sketchapp.com -->
    <title>energy production</title>
    <desc>Created with Sketch.</desc>
    <g id="Page-1" stroke="none" stroke-width="1" fill="none" fill-rule="evenodd">
        <path d="M83.7573116,44.5824834 C83.764553,39.9405523 88.5691048,34.3117246 88.5691048,34.3117246 C89.4993117,33.2211729 89.1438634,31.976897 87.7791737,31.5424143 C87.7791737,31.5424143 80.3445529,29.1757246 77.8959322,25.3293107 C75.452277,21.4802072 76.5206908,14.7693106 76.5206908,14.7693106 C76.7470356,13.3547588 75.7733804,12.3829657 74.3606908,12.6074485 C74.3606908,12.6074485 67.6502079,13.6752416 63.8029665,11.2346898 C59.9534492,8.78668979 57.5861388,1.35062071 57.5861388,1.35062071 C57.151656,-0.0134482761 55.9061388,-0.369517247 54.8168284,0.56027587 C54.8168284,0.56027587 49.189449,5.36524146 44.5483455,5.37331042 C39.9076558,5.36524146 34.2804833,0.559655181 34.2804833,0.559655181 C33.190966,-0.370344833 31.9458625,-0.0148965519 31.510966,1.34979312 C31.510966,1.34979312 29.1442763,8.7858622 25.296828,11.2346898 C21.4477245,13.6760692 14.7386899,12.6074485 14.7386899,12.6074485 C13.3249657,12.3829657 12.3521381,13.3547588 12.5766209,14.7693106 C12.5766209,14.7693106 13.6448278,21.4793796 11.2040691,25.3276555 C8.7560691,29.1757246 1.31875864,31.5424143 1.31875864,31.5424143 C-0.0448965524,31.976897 -0.400344834,33.2222074 0.528827594,34.3117246 C0.528827594,34.3117246 5.33379318,39.939104 5.34186215,44.5795869 C5.33544836,49.221518 0.528827594,54.8493112 0.528827594,54.8493112 C-0.40117242,55.9377939 -0.0459310352,57.1841388 1.31875864,57.6169664 C1.31875864,57.6169664 8.75420703,59.9834492 11.2040691,63.8311044 C13.6454485,67.6802079 12.5774485,74.3896563 12.5774485,74.3896563 C12.3521381,75.804208 13.3249657,76.7753805 14.7386899,76.5508977 C14.7386899,76.5508977 21.4487589,75.4839322 25.2960004,77.9236563 C29.1442763,80.372484 31.510966,87.8087599 31.510966,87.8087599 C31.9458625,89.1728289 33.190966,89.5288979 34.2804833,88.5988979 C34.2804833,88.5988979 39.9066213,83.7947599 44.5477248,83.786484 C49.1906904,83.7939323 54.8178629,88.5997255 54.8178629,88.5997255 C55.9084146,89.5297255 57.1533112,89.1728289 57.5880009,87.8095875 C57.5880009,87.8095875 59.9546905,80.3747598 63.8013113,77.9275874 C67.6497941,75.4837253 74.3596563,76.5525529 74.3596563,76.5525529 C75.7735873,76.776208 76.7464149,75.8050356 76.5217253,74.3904839 C76.5217253,74.3904839 75.4545528,67.6818631 77.8946908,63.8337941 C80.3416564,59.9846905 87.7793806,57.6169664 87.7793806,57.6169664 C89.1434496,57.1818629 89.4984841,55.9377939 88.5693117,54.847656 C88.5691048,54.8478629 83.764553,49.221518 83.7573116,44.5824834 Z M44.5481386,75.4680011 C27.4891039,75.4680011 13.6597243,61.6386216 13.6597243,44.57938 C13.6597243,27.5213797 27.4882763,13.6913795 44.5481386,13.6913795 C61.6080009,13.6913795 75.4367597,27.5205521 75.4367597,44.57938 C75.4367597,61.6386216 61.6080009,75.4680011 44.5481386,75.4680011 Z M54.0649663,17.2789658 L27.8822073,49.1424835 L43.0367593,49.1424835 L35.1388971,71.9826218 L61.3200009,40.1201385 L46.1668972,40.1201385 L54.0649663,17.2789658 Z" id="energy-production" fill="#000000" fill-rule="nonzero"></path>
    </g>
</svg>